<svg width="60" height="60" viewBox="0 0 60 60" fill="none" xmlns="http://www.w3.org/2000/svg">
<rect width="60" height="60" rx="10" fill="#23D2B5" fill-opacity="0.2"/>
<path d="M25.3647 30.5582C25.3647 31.5032 25.2622 32.3257 25.0572 33.0257C24.8572 33.7207 24.5772 34.2957 24.2172 34.7507C23.8622 35.2057 23.4397 35.5457 22.9497 35.7707C22.4647 35.9907 21.9397 36.1007 21.3747 36.1007C20.8097 36.1007 20.2847 35.9907 19.7997 35.7707C19.3197 35.5457 18.9022 35.2057 18.5472 34.7507C18.1922 34.2957 17.9147 33.7207 17.7147 33.0257C17.5147 32.3257 17.4147 31.5032 17.4147 30.5582C17.4147 29.6082 17.5147 28.7857 17.7147 28.0907C17.9147 27.3957 18.1922 26.8207 18.5472 26.3657C18.9022 25.9107 19.3197 25.5732 19.7997 25.3532C20.2847 25.1282 20.8097 25.0157 21.3747 25.0157C21.9397 25.0157 22.4647 25.1282 22.9497 25.3532C23.4397 25.5732 23.8622 25.9107 24.2172 26.3657C24.5772 26.8207 24.8572 27.3957 25.0572 28.0907C25.2622 28.7857 25.3647 29.6082 25.3647 30.5582ZM23.4522 30.5582C23.4522 29.7732 23.3947 29.1232 23.2797 28.6082C23.1647 28.0932 23.0097 27.6832 22.8147 27.3782C22.6247 27.0732 22.4047 26.8607 22.1547 26.7407C21.9047 26.6157 21.6447 26.5532 21.3747 26.5532C21.1097 26.5532 20.8522 26.6157 20.6022 26.7407C20.3572 26.8607 20.1397 27.0732 19.9497 27.3782C19.7597 27.6832 19.6072 28.0932 19.4922 28.6082C19.3822 29.1232 19.3272 29.7732 19.3272 30.5582C19.3272 31.3432 19.3822 31.9932 19.4922 32.5082C19.6072 33.0232 19.7597 33.4332 19.9497 33.7382C20.1397 34.0432 20.3572 34.2582 20.6022 34.3832C20.8522 34.5032 21.1097 34.5632 21.3747 34.5632C21.6447 34.5632 21.9047 34.5032 22.1547 34.3832C22.4047 34.2582 22.6247 34.0432 22.8147 33.7382C23.0097 33.4332 23.1647 33.0232 23.2797 32.5082C23.3947 31.9932 23.4522 31.3432 23.4522 30.5582ZM25.9358 29.0207H26.9333C27.0483 28.4107 27.2308 27.8607 27.4808 27.3707C27.7308 26.8757 28.0358 26.4557 28.3958 26.1107C28.7558 25.7657 29.1633 25.5007 29.6183 25.3157C30.0733 25.1257 30.5683 25.0307 31.1033 25.0307C31.7983 25.0307 32.3933 25.1657 32.8883 25.4357C33.3833 25.7007 33.7983 26.0607 34.1333 26.5157L33.4808 27.2207C33.4308 27.2757 33.3783 27.3257 33.3233 27.3707C33.2683 27.4107 33.1908 27.4307 33.0908 27.4307C33.0208 27.4307 32.9558 27.4107 32.8958 27.3707C32.8408 27.3307 32.7783 27.2807 32.7083 27.2207C32.6383 27.1607 32.5608 27.0957 32.4758 27.0257C32.3908 26.9557 32.2883 26.8907 32.1683 26.8307C32.0533 26.7707 31.9158 26.7207 31.7558 26.6807C31.5958 26.6407 31.4058 26.6207 31.1858 26.6207C30.5958 26.6207 30.0983 26.8232 29.6933 27.2282C29.2883 27.6332 29.0058 28.2307 28.8458 29.0207H32.6108V29.5907C32.6108 29.7057 32.5633 29.8132 32.4683 29.9132C32.3783 30.0082 32.2533 30.0557 32.0933 30.0557H28.7183C28.7133 30.1407 28.7108 30.2257 28.7108 30.3107C28.7108 30.3907 28.7108 30.4732 28.7108 30.5582C28.7108 30.6182 28.7108 30.6782 28.7108 30.7382C28.7108 30.7982 28.7133 30.8557 28.7183 30.9107H31.8983V31.4732C31.8983 31.5882 31.8508 31.6957 31.7558 31.7957C31.6608 31.8907 31.5358 31.9382 31.3808 31.9382H28.8083C28.9483 32.7982 29.2158 33.4407 29.6108 33.8657C30.0108 34.2857 30.5058 34.4957 31.0958 34.4957C31.4558 34.4957 31.7433 34.4482 31.9583 34.3532C32.1783 34.2532 32.3558 34.1432 32.4908 34.0232C32.6308 33.9032 32.7458 33.7957 32.8358 33.7007C32.9308 33.6007 33.0333 33.5507 33.1433 33.5507C33.1983 33.5507 33.2458 33.5607 33.2858 33.5807C33.3258 33.5957 33.3683 33.6282 33.4133 33.6782L34.2158 34.4132C33.8658 34.9532 33.4208 35.3682 32.8808 35.6582C32.3408 35.9432 31.7133 36.0857 30.9983 36.0857C30.4083 36.0857 29.8783 35.9882 29.4083 35.7932C28.9433 35.5932 28.5383 35.3132 28.1933 34.9532C27.8483 34.5932 27.5658 34.1582 27.3458 33.6482C27.1308 33.1382 26.9783 32.5682 26.8883 31.9382H25.9358V30.9107H26.8058C26.8008 30.8557 26.7983 30.7982 26.7983 30.7382C26.7983 30.6782 26.7983 30.6182 26.7983 30.5582C26.7983 30.4732 26.7983 30.3907 26.7983 30.3107C26.7983 30.2257 26.8008 30.1407 26.8058 30.0557H25.9358V29.0207Z" fill="#23D2B5"/>
<path d="M50.1833 31.4355L48.1023 29.565C47.4486 29.0129 46.608 28.7304 45.7518 28.7736C44.896 28.8174 44.0888 29.1842 43.4948 29.7998L30.345 44.3186L28.7695 53.0001L37.2778 50.5426L50.4276 36.0138C51.0081 35.3746 51.3093 34.532 51.2653 33.671C51.2207 32.8105 50.8349 32.0027 50.1918 31.426L50.1833 31.4355ZM34.6159 49.1508L31.4062 50.082L32.0041 46.8108L34.6159 49.1508ZM45.3061 38.582L36.6206 48.1695L32.7791 44.7218L41.4646 35.1343L45.3061 38.582ZM49.1809 33.7841C49.1956 34.0924 49.0862 34.3946 48.8774 34.6227L46.6956 37.0385L42.8546 33.6329L45.0364 31.2171V31.2176C45.4832 30.7413 46.2284 30.7042 46.7208 31.1334L48.8018 33.0038C49.024 33.206 49.16 33.4852 49.1808 33.784L49.1809 33.7841Z" fill="#23D2B5"/>
<path d="M26.1776 49.4629H14.3081C13.3482 49.4629 12.4278 49.0841 11.7492 48.41C11.0705 47.7359 10.6892 46.8216 10.6892 45.8682V14.2659C10.6892 13.3124 11.0705 12.3981 11.7492 11.724C12.4278 11.0499 13.3482 10.6712 14.3081 10.6712H38.0377C38.9976 10.6712 39.9181 11.0499 40.5967 11.724C41.2753 12.3982 41.6566 13.3124 41.6566 14.2659V27.2185H44.3456L44.3462 14.2659C44.3439 12.6046 43.6786 11.0122 42.4958 9.83742C41.3136 8.66253 39.7101 8.0017 38.0376 8H14.308C12.6355 8.00166 11.0325 8.66253 9.84976 9.83742C8.66754 11.0123 8.00228 12.6046 8 14.2659V45.8682C8.00222 47.5295 8.66754 49.1222 9.84976 50.2966C11.0325 51.4715 12.6355 52.1324 14.308 52.1346H26.1775L26.1776 49.4629Z" fill="#23D2B5"/>
</svg>